HIERARCHY
ROOT root
{
	OFFSET 0.000000 0.000000 0.000000
	CHANNELS 6 Xposition Yposition Zposition Zrotation Yrotation Xrotation
	JOINT lhip
	{
		OFFSET 0.058581 -0.082280 -0.017664
		CHANNELS 3 Zrotation Yrotation Xrotation
		JOINT lknee
		{
			OFFSET 0.043451 -0.386469 0.008037
			CHANNELS 3 Zrotation Yrotation Xrotation
			JOINT lankle
			{
				OFFSET -0.014790 -0.426874 -0.037428
				CHANNELS 3 Zrotation Yrotation Xrotation
				JOINT ltoe
				{
					OFFSET 0.041054 -0.060286 0.122042
					CHANNELS 3 Zrotation Yrotation Xrotation
					End Site
					{
						OFFSET 0.000000 0.000000 0.000000
					}
				}
			}
		}
	}
	JOINT rhip
	{
		OFFSET -0.060310 -0.090513 -0.013543
		CHANNELS 3 Zrotation Yrotation Xrotation
		JOINT rknee
		{
			OFFSET -0.043257 -0.383688 -0.004843
			CHANNELS 3 Zrotation Yrotation Xrotation
			JOINT rankle
			{
				OFFSET 0.019056 -0.420046 -0.034562
				CHANNELS 3 Zrotation Yrotation Xrotation
				JOINT rtoe
				{
					OFFSET -0.034840 -0.062106 0.130323
					CHANNELS 3 Zrotation Yrotation Xrotation
					End Site
					{
						OFFSET 0.000000 0.000000 0.000000
					}
				}
			}
		}
	}
	JOINT lowerback
	{
		OFFSET 0.004439 0.124404 -0.038385
		CHANNELS 3 Zrotation Yrotation Xrotation
		JOINT upperback
		{
			OFFSET 0.004488 0.137956 0.026820
			CHANNELS 3 Zrotation Yrotation Xrotation
			JOINT chest
			{
				OFFSET -0.002265 0.056032 0.002855
				CHANNELS 3 Zrotation Yrotation Xrotation
				JOINT lowerneck
				{
					OFFSET -0.013390 0.211636 -0.033468
					CHANNELS 3 Zrotation Yrotation Xrotation
					JOINT upperneck
					{
						OFFSET 0.010113 0.088937 0.050410
						CHANNELS 3 Zrotation Yrotation Xrotation
						End Site
						{
							OFFSET 0.000000 0.000000 0.000000
						}
					}
				}
				JOINT lclavicle
				{
					OFFSET 0.071702 0.114000 -0.018898
					CHANNELS 3 Zrotation Yrotation Xrotation
					JOINT lshoulder
					{
						OFFSET 0.122921 0.045205 -0.019046
						CHANNELS 3 Zrotation Yrotation Xrotation
						JOINT lelbow
						{
							OFFSET 0.255332 -0.015649 -0.022946
							CHANNELS 3 Zrotation Yrotation Xrotation
							JOINT lwrist
							{
								OFFSET 0.265709 0.012698 -0.007375
								CHANNELS 3 Zrotation Yrotation Xrotation
								End Site
								{
									OFFSET 0.000000 0.000000 0.000000
								}
							}
						}
					}
				}
				JOINT rclavicle
				{
					OFFSET -0.082954 0.112472 -0.023707
					CHANNELS 3 Zrotation Yrotation Xrotation
					JOINT rshoulder
					{
						OFFSET -0.113228 0.046853 -0.008472
						CHANNELS 3 Zrotation Yrotation Xrotation
						JOINT relbow
						{
							OFFSET -0.260127 -0.014369 -0.031269
							CHANNELS 3 Zrotation Yrotation Xrotation
							JOINT rwrist
							{
								OFFSET -0.269108 0.006794 -0.006027
								CHANNELS 3 Zrotation Yrotation Xrotation
								End Site
								{
									OFFSET 0.000000 0.000000 0.000000
								}
							}
						}
					}
				}
			}
		}
	}
}
MOTION
Frames: 17
Frame Time: 0.033333
-0.203763 0.486993 0.980069 176.612318 1.403580 89.690899 8.188352 5.624341 3.867921 -2.625268 -0.584461 -5.747185 0.964102 9.049465 -4.531179 0.000000 -0.000000 0.000000 -5.221048 -6.097676 5.141553 3.654012 -3.448639 -9.409659 1.015741 -5.865541 -2.634981 0.000000 -0.000000 0.000000 0.557273 3.183502 5.009453 1.527200 -2.700012 5.816072 1.214299 0.522652 -5.422696 0.615467 6.061771 -3.230479 4.880840 3.497793 -12.426503 -26.723752 -6.661608 -1.166025 -57.684985 -1.328467 13.145313 8.388207 -8.434131 -12.903002 -1.064572 -10.404989 -0.629713 26.494265 10.444942 5.386189 53.269944 2.969288 11.253693 -11.645611 7.607797 -10.980286 7.977771 10.643341 -1.531300 
-0.204258 0.487052 0.979987 176.568679 1.425177 89.741524 8.219477 5.527320 3.671033 -2.707164 -0.872105 -5.475348 0.868864 9.463977 -4.615368 0.000000 -0.000000 0.000000 -5.183679 -5.995584 5.124604 3.509388 -3.245106 -9.493358 1.718156 -6.181330 -2.753769 0.000000 -0.000000 0.000000 0.619797 3.178148 4.881887 1.445665 -2.989129 5.852607 1.111239 0.679965 -5.568406 0.312223 5.812466 -3.037260 5.093624 3.690066 -12.086421 -26.546461 -7.198334 -1.034095 -58.228248 -1.723529 13.123436 8.293048 -9.319205 -12.804987 -0.642671 -10.001887 -0.291116 25.791848 10.755644 5.069722 53.711368 3.503818 10.263110 -10.656841 7.915489 -10.171453 8.325893 10.690389 0.342568 
-0.204755 0.487370 0.980402 176.530640 1.494097 89.709308 8.274787 5.535674 3.592373 -2.710652 -0.882890 -5.326872 0.716707 9.574947 -4.600285 0.000000 -0.000000 0.000000 -5.106276 -5.877053 5.160771 3.425190 -3.319965 -9.591452 1.794274 -6.175603 -2.723374 0.000000 -0.000000 0.000000 0.924450 3.028481 4.875678 1.278923 -2.978600 5.954492 0.802202 0.643191 -5.857251 0.232412 5.795743 -2.584163 5.179824 3.637340 -12.051953 -26.474285 -7.565537 -1.543910 -58.616119 -1.803413 13.524492 8.224070 -10.195516 -12.639248 -1.049169 -10.133113 0.586389 24.953739 10.872345 4.436909 54.435154 4.294879 9.280045 -9.557323 8.079558 -9.300080 9.543684 10.975003 3.061559 
-0.205259 0.485983 0.980605 176.394327 1.647230 89.548939 8.539832 5.389093 3.506092 -2.943810 -0.432954 -4.961491 0.980629 9.136671 -4.595987 0.000000 -0.000000 0.000000 -4.953502 -5.552871 5.229759 3.407741 -3.567905 -9.640428 1.772964 -6.067407 -2.658280 0.000000 -0.000000 0.000000 0.804299 2.903433 5.336321 1.345206 -2.939573 4.700231 1.065699 0.125938 -4.999082 0.350710 6.167769 -2.948241 4.774501 3.786325 -11.121369 -26.548408 -7.538478 -1.524809 -60.002370 -3.180088 13.560206 9.157143 -12.142350 -10.305986 -1.868355 -10.256709 0.039133 25.472227 9.359194 4.184530 54.511658 6.439424 10.678280 -11.292069 10.756810 -5.690121 11.678094 9.947925 3.098861 
-0.205604 0.485738 0.980809 176.287140 1.662472 89.597149 8.528497 5.435678 3.385998 -2.954960 -0.316133 -4.846711 0.946433 9.138871 -4.647221 0.000000 -0.000000 0.000000 -4.950209 -5.501544 5.109205 3.402685 -3.673485 -9.605954 1.844817 -5.952265 -2.648982 0.000000 -0.000000 0.000000 0.836294 2.899016 5.263853 1.304953 -2.984387 4.942080 1.025919 0.276211 -5.440937 0.351766 6.211058 -2.718515 4.776823 3.575789 -11.013979 -26.484161 -7.959589 -1.495755 -60.401075 -3.137535 13.964912 9.396078 -13.096297 -10.795349 -1.865133 -10.426490 0.427197 25.100320 10.495054 4.330044 54.977730 5.977114 10.618513 -11.055698 11.307767 -6.495705 11.466674 10.468046 3.230053 
-0.206140 0.485420 0.980816 176.096866 1.666662 89.561849 8.534441 5.494164 3.381537 -3.026012 -0.104291 -4.731557 0.994820 9.024529 -4.714398 0.000000 -0.000000 0.000000 -4.978419 -5.386787 5.102976 3.377358 -3.849696 -9.625057 1.844662 -5.693555 -2.543531 0.000000 -0.000000 0.000000 0.698015 2.888787 5.364446 1.433290 -3.016438 4.862387 1.139807 0.365517 -5.873025 0.123989 6.293857 -2.310295 4.629543 3.490940 -10.655435 -26.626850 -8.238373 -1.363337 -61.085497 -3.371882 14.505342 9.882109 -15.483211 -10.860626 -1.709914 -10.661708 0.312299 24.874174 11.223890 3.706687 55.334571 5.362847 11.156470 -11.120658 13.510550 -6.207490 11.773299 10.956411 3.354287 
-0.206559 0.484791 0.980671 175.834721 1.692769 89.496934 8.575893 5.483636 3.456932 -3.101742 0.252164 -4.702482 1.166275 8.824312 -4.748958 0.000000 -0.000000 0.000000 -5.027439 -5.403728 5.059537 3.450836 -3.884622 -9.587699 1.870447 -5.377387 -2.452553 0.000000 -0.000000 0.000000 0.532764 2.889051 5.534061 1.517767 -2.971438 4.376121 1.320663 0.218480 -5.599263 0.115026 6.297625 -2.589675 4.399005 3.509194 -10.135876 -26.775763 -8.188261 -1.156652 -61.577342 -3.920498 14.474060 10.166967 -18.459623 -9.830243 -1.183905 -10.749035 -0.642466 25.348597 10.639203 3.708768 54.846905 6.468416 11.904466 -11.294455 16.406325 -4.419055 11.952293 10.780433 3.145668 
-0.207020 0.484308 0.980718 175.589449 1.694346 89.468940 8.536073 5.468313 3.554503 -3.103514 0.556914 -4.781124 1.166829 8.698953 -4.790801 0.000000 -0.000000 0.000000 -5.068711 -5.319128 4.981823 3.458828 -3.988653 -9.530533 1.970376 -5.118901 -2.411886 0.000000 -0.000000 0.000000 0.444387 2.835543 5.472678 1.519613 -2.944170 4.329484 1.389505 0.224257 -5.575446 0.029643 6.471927 -2.651514 4.160315 3.507913 -9.913850 -26.798506 -8.345413 -0.969656 -61.967248 -4.187433 14.556714 10.468903 -21.534787 -9.173341 -0.900068 -11.115613 -0.988381 25.528228 10.857570 3.938228 54.464868 7.240139 12.242318 -11.080622 19.045310 -3.414670 11.864040 11.030937 3.380689 
-0.207250 0.483590 0.980841 175.321649 1.762904 89.495061 8.592957 5.528824 3.549579 -3.132947 0.825245 -4.780349 1.115251 8.587046 -4.851195 0.000000 -0.000000 0.000000 -5.007857 -5.386199 4.758084 3.437388 -3.952124 -9.350645 2.093759 -4.856035 -2.397368 0.000000 -0.000000 0.000000 0.402863 2.824642 5.346309 1.565213 -2.941700 4.330951 1.415758 0.239408 -5.650323 0.076917 6.506592 -2.547403 3.983704 3.530808 -9.750051 -26.837502 -8.460787 -0.925537 -62.150795 -4.202367 14.916341 10.720972 -24.611554 -8.340565 -0.357113 -11.157650 -0.997318 25.635195 11.082125 4.068099 54.079370 7.814997 12.557029 -10.834312 21.669593 -2.653317 11.538620 11.113105 3.576125 
-0.207767 0.483385 0.980931 175.232690 1.760791 89.375689 8.573350 5.534452 3.788974 -3.164765 0.916404 -4.962563 1.117920 8.507907 -4.899705 0.000000 -0.000000 0.000000 -5.031029 -5.255920 4.855611 3.383758 -4.063882 -9.332691 2.172116 -4.754323 -2.401523 0.000000 -0.000000 0.000000 0.380200 2.685248 5.390302 1.544280 -2.906464 4.255510 1.414615 0.224025 -5.661726 0.064042 6.523616 -2.571780 3.801199 3.601614 -9.444352 -26.832779 -8.564490 -0.795681 -62.162427 -4.138182 15.274298 10.905543 -27.634862 -7.212280 0.193624 -11.224224 -1.020163 25.612749 11.204276 4.032870 53.829238 8.378479 12.690248 -10.573707 23.924135 -2.000019 11.261984 11.190394 3.486326 
-0.208217 0.482803 0.981039 175.073722 1.763118 89.346520 8.549013 5.520318 3.899987 -3.185362 1.075424 -5.117517 1.153685 8.489619 -4.833031 0.000000 -0.000000 0.000000 -5.071153 -5.173916 4.803644 3.403117 -4.119484 -9.325836 2.291188 -4.627575 -2.363538 0.000000 -0.000000 0.000000 0.384593 2.595223 5.409552 1.500307 -2.879461 4.124748 1.381288 0.210579 -5.685719 0.131607 6.445821 -2.536915 3.707363 3.549693 -9.203671 -26.762191 -8.547086 -0.746417 -62.081640 -4.151889 15.675607 10.860326 -30.001961 -6.007060 0.560415 -11.339773 -0.919792 25.576929 11.217211 3.965219 53.767619 9.095738 12.771337 -10.427122 25.407947 -1.681787 10.967019 11.264471 3.107798 
-0.208683 0.482026 0.981160 174.855740 1.780459 89.282521 8.526265 5.626684 3.994681 -3.165454 1.230408 -5.198359 1.189095 8.438546 -4.816084 0.000000 -0.000000 0.000000 -5.118530 -5.121905 4.689256 3.459628 -4.185430 -9.167703 2.352784 -4.407129 -2.356494 0.000000 -0.000000 0.000000 0.454257 2.494734 5.528514 1.418322 -2.771069 3.977548 1.332237 0.275146 -5.697553 0.097437 6.611751 -2.368319 3.594629 3.606703 -9.176776 -26.647446 -8.633171 -0.707367 -61.992065 -4.160374 15.983440 10.838459 -31.742864 -5.082775 0.832442 -11.537797 -0.798990 25.482081 11.323511 3.880193 53.861714 9.612059 12.704613 -10.561267 26.518504 -1.793280 10.677197 11.369053 2.726202 
-0.209043 0.481756 0.981257 174.822728 1.805451 89.229374 8.511234 5.676490 4.098054 -3.121383 1.288455 -5.323841 1.212338 8.362350 -4.778825 0.000000 -0.000000 0.000000 -5.126347 -5.185339 4.716537 3.466259 -4.217213 -9.173241 2.379377 -4.312154 -2.317112 0.000000 -0.000000 0.000000 0.517357 2.461558 5.511682 1.378868 -2.778353 3.906914 1.290046 0.254839 -5.690510 0.073346 6.605554 -2.311478 3.521180 3.522307 -9.070999 -26.583700 -8.705513 -0.659416 -61.883452 -4.203714 16.172380 10.800303 -32.687578 -4.474211 0.952950 -11.500280 -0.735080 25.431380 11.404478 3.844118 53.924398 10.022752 12.678024 -10.731415 27.169045 -1.977004 10.430250 11.429508 2.314814 
-0.209362 0.481297 0.981442 174.758177 1.834424 89.164334 8.509707 5.694539 4.150748 -3.081963 1.344305 -5.347942 1.208367 8.341472 -4.749103 0.000000 -0.000000 0.000000 -5.104975 -5.171854 4.728919 3.435811 -4.194468 -9.176429 2.438396 -4.285656 -2.308590 0.000000 -0.000000 0.000000 0.584652 2.491481 5.547098 1.341135 -2.741651 3.780040 1.262072 0.211698 -5.668287 0.033771 6.545434 -2.246759 3.454638 3.499419 -8.866207 -26.471025 -8.752144 -0.651463 -61.864264 -4.226569 16.286434 10.747205 -32.867551 -4.220135 1.119962 -11.471236 -0.844153 25.354376 11.445511 3.847634 53.995348 10.328969 12.714988 -10.902749 27.447367 -2.148753 10.198835 11.355212 1.995498 
-0.209653 0.480839 0.981545 174.759459 1.839539 89.144385 8.488748 5.662800 4.201203 -3.074759 1.387207 -5.488426 1.186491 8.340846 -4.703711 0.000000 -0.000000 0.000000 -5.117401 -5.132274 4.736452 3.430690 -4.201280 -9.224317 2.466729 -4.298600 -2.260226 0.000000 -0.000000 0.000000 0.590675 2.506559 5.451488 1.316399 -2.746161 3.811122 1.252990 0.216372 -5.632509 -0.052942 6.619695 -2.063395 3.446867 3.501671 -8.978418 -26.377633 -8.773646 -0.696884 -61.854875 -4.205171 16.281804 10.793240 -32.389104 -4.316546 0.936978 -11.610201 -0.863689 25.302849 11.574047 3.805168 54.040056 10.412450 12.709766 -11.095218 27.288029 -2.406714 10.125307 11.389713 1.852755 
-0.209967 0.480628 0.981587 174.830265 1.819294 89.105840 8.430286 5.636685 4.284728 -3.032656 1.316619 -5.645058 1.169967 8.385409 -4.679494 0.000000 -0.000000 0.000000 -5.164577 -5.066142 4.807930 3.436508 -4.236985 -9.283037 2.488184 -4.390560 -2.211134 0.000000 -0.000000 0.000000 0.569122 2.484611 5.441778 1.289170 -2.741117 3.748933 1.258866 0.229727 -5.557116 -0.136369 6.615730 -1.919183 3.455213 3.469266 -9.185022 -26.275226 -8.778138 -0.757002 -61.886238 -4.201950 16.166048 10.769934 -31.197719 -4.609103 0.702244 -11.473189 -0.854199 25.221872 11.608672 3.744606 54.133896 10.306643 12.751694 -11.212972 26.841044 -2.505990 10.122238 11.323586 1.890354 
-0.210178 0.480277 0.981608 174.848657 1.821619 89.108501 8.397008 5.608342 4.336988 -2.997547 1.272460 -5.810003 1.176812 8.462388 -4.578359 0.000000 -0.000000 0.000000 -5.168654 -5.056856 4.803117 3.434578 -4.233720 -9.321391 2.512953 -4.452228 -2.158920 0.000000 -0.000000 0.000000 0.550521 2.531104 5.476841 1.269653 -2.707207 3.632745 1.285983 0.197335 -5.498356 -0.207408 6.607611 -1.935346 3.473587 3.446091 -9.186608 -26.223202 -8.733807 -0.766965 -61.860553 -4.061003 15.986653 10.780550 -29.635118 -5.006000 0.551083 -11.446696 -0.870262 25.178628 11.532960 3.720114 54.170892 10.142811 12.771998 -11.173211 26.021011 -2.508888 10.157432 11.439398 2.080048 
